<svg width="53" height="78" viewBox="0 0 53 78" fill="none" xmlns="http://www.w3.org/2000/svg">
<path d="M13.9956 41.9715L52.9965 41.9715L52.9965 78L13.9956 41.9715ZM0 41.9715C4.28375 41.9715 8.39205 43.8695 11.4211 47.2478C14.4502 50.6261 16.1519 55.2081 16.1519 59.9858C16.1519 64.7634 14.4502 69.3454 11.4211 72.7238C8.39205 76.1021 4.28375 78 0 78L0 41.9715ZM53 36.0362C48.7163 36.0362 44.6078 34.1384 41.5789 30.7599C38.5497 27.3817 36.8481 22.7995 36.8481 18.0219C36.8481 13.2444 38.5497 8.66217 41.5789 5.28402C44.6078 1.90549 48.7163 0.00771261 53 0.00771261V36.0362ZM39.0044 36.0362L0 36.0362L0 2.69444e-06L39.001 36.0362H39.0044Z" fill="black"/>
</svg>
