<?xml version="1.0" encoding="UTF-8" standalone="no"?>
<!-- Created with Inkscape (http://www.inkscape.org/) -->

<svg
   width="129.78317mm"
   height="33.186459mm"
   viewBox="0 0 129.78317 33.186459"
   version="1.1"
   id="svg1"
   xml:space="preserve"
   xmlns="http://www.w3.org/2000/svg"
   xmlns:svg="http://www.w3.org/2000/svg"><defs
     id="defs1" /><g
     id="layer1"
     transform="translate(160.82268,-0.298438)"><g
       id="g26"
       transform="translate(91.669573,-0.870047)"
       style="fill:#49adae;fill-opacity:1"><g
         id="g3"><g
           id="g25"
           transform="translate(-271.90652,-78.776458)"
           style="fill:#49adae;fill-opacity:1"><path
             d="m 29.402796,79.944993 v 4.00581 5.982698 1.80084 0.20063 c 0.0262,1.71803 0.5991,3.38311 1.63574,4.75379 1.18093,1.56589 2.89088,2.64963 4.81157,3.04949 0.53669,0.11649 1.08389,0.17807 1.63305,0.18377 v 8.819179 0.98575 h -4.48048 -1.01679 c -0.26071,-0.015 -0.52093,-0.0378 -0.78028,-0.0684 -0.55792,-0.0534 -1.11186,-0.14265 -1.65835,-0.2672 -0.0482,-0.0126 -0.0964,-0.0256 -0.14446,-0.0388 -0.65085,-0.15628 -1.28881,-0.36238 -1.90815,-0.61643 -4.87695,-2.01992 -8.0639,-6.7771 -8.08037,-12.061589 v -6.74108 -9.988508 z"
             style="fill:#49adae;fill-opacity:1;stroke:none;stroke-width:0.0459408"
             id="path24" /><path
             d="m 45.563516,113.13133 v -4.00582 -5.9827 -1.80084 -0.20063 c -0.0262,-1.718029 -0.5991,-3.383099 -1.63574,-4.753789 -1.18093,-1.56589 -2.89088,-2.64963 -4.81157,-3.04949 -0.53669,-0.11648 -1.08388,-0.17806 -1.63305,-0.18376 v -8.819188 -0.98574 h 4.48048 1.01679 c 0.26071,0.015 0.52093,0.0378 0.78028,0.0684 0.55792,0.0534 1.11187,0.14265 1.65835,0.26721 0.0482,0.0126 0.0964,0.0256 0.14446,0.0388 0.65085,0.15628 1.28881,0.36237 1.90816,0.61643 4.87694,2.019918 8.06389,6.777098 8.08036,12.061588 v 6.741079 9.98852 z"
             style="fill:#49adae;fill-opacity:1;stroke:none;stroke-width:0.0459408"
             id="path25" /></g><text
           xml:space="preserve"
           style="font-style:normal;font-variant:normal;font-weight:normal;font-stretch:normal;font-size:21.6495px;font-family:Poppins;-inkscape-font-specification:Poppins;opacity:1;fill:#49adae;fill-opacity:1;stroke:none;stroke-width:0.901965;stroke-dasharray:none;stroke-opacity:1"
           x="-212.70604"
           y="28.682785"
           id="text25"><tspan
             id="tspan25"
             style="font-style:normal;font-variant:normal;font-weight:normal;font-stretch:normal;font-family:Poppins;-inkscape-font-specification:Poppins;fill:#49adae;fill-opacity:1;stroke:none;stroke-width:0.901965;stroke-dasharray:none"
             x="-212.70604"
             y="28.682785">epthune</tspan></text></g></g></g></svg>
